<svg xmlns="http://www.w3.org/2000/svg" viewBox="0 0 24 39" width="24" height="39">
	<style>
		tspan { white-space:pre }
		.shp0 { fill: #e5e5e5 } 
	</style>
	<path id="interface - arrow left" class="shp0" d="M21.54,1.14l-20.06,17.87c-0.47,0.29 -0.63,0.95 -0.36,1.46c0.27,0.51 0.87,0.69 1.34,0.39l20.06,-17.87c0.47,-0.29 0.63,-0.95 0.36,-1.46c-0.27,-0.51 -0.87,-0.69 -1.34,-0.39zM22.88,38.47c0.27,-0.51 0.11,-1.16 -0.36,-1.46l-20.06,-17.87c-0.47,-0.29 -1.07,-0.12 -1.34,0.39c-0.27,0.51 -0.11,1.16 0.36,1.46l20.06,17.87c0.47,0.29 1.07,0.12 1.34,-0.39z" />
</svg>