<svg xmlns="http://www.w3.org/2000/svg" viewBox="0 0 36 23" width="36" height="23">
	<style>
		tspan { white-space:pre }
		.shp0 { fill: #e5e5e5 } 
	</style>
	<path id="interface - arrow top " class="shp0" d="M35.86,20.6l-16.92,-19.13c-0.28,-0.45 -0.9,-0.6 -1.38,-0.34c-0.48,0.26 -0.65,0.83 -0.37,1.28l16.92,19.13c0.28,0.45 0.9,0.6 1.38,0.34c0.48,-0.26 0.65,-0.83 0.37,-1.28zM0.51,21.88c0.48,0.26 1.1,0.1 1.38,-0.34l16.92,-19.13c0.28,-0.45 0.11,-1.02 -0.37,-1.28c-0.48,-0.26 -1.1,-0.1 -1.38,0.34l-16.92,19.13c-0.28,0.45 -0.11,1.02 0.37,1.28z" />
</svg>