<svg xmlns="http://www.w3.org/2000/svg" viewBox="0 0 33 33" width="33" height="33">
	<defs>
		<filter id="flt1"> <feColorMatrix in="SourceGraphic" type="matrix" values="0 0 0 0 0.922   0 0 0 0 0.922   0 0 0 0 0.922   0 0 0 1 0" /> </filter>
	</defs>
	<style>
		tspan { white-space:pre }
		.shp0 { filter: url(#flt1);fill: #ebebeb } 
	</style>
	<path id="facebook" class="shp0" d="M16,0c8.84,0 16,7.16 16,16c0,8.84 -7.16,16 -16,16c-8.84,0 -16,-7.16 -16,-16c0,-8.84 7.16,-16 16,-16zM18.13,6c-3.87,0 -3.13,4 -3.13,4v3h-2v4h2v9h4v-9h2l1,-4h-3c0,0 0,-1.18 0,-2c0,-0.82 1,-1 1,-1h2v-4c0,0 0,0 -3.87,0z" />
</svg>