<svg xmlns="http://www.w3.org/2000/svg" viewBox="0 0 54 73" width="54" height="73">
	<style>
		tspan { white-space:pre }
		.shp0 { fill: #f5f5f5 } 
	</style>
	<path id="Logo" class="shp0" d="M29.71,53.98c-0.51,5.56 -1.54,10.44 -3.42,14.72c-0.62,1.42 -1.76,2.77 -2.28,4.3c-0.08,0 -0.15,0 -0.23,0c0,-0.38 0,-0.75 0,-1.13c0.43,-0.66 0.22,-1.57 0.46,-2.49c1.13,-4.36 1.21,-10.17 -0.68,-13.81c-3.24,-6.22 -9.73,-4.13 -16.18,-6.79c-2.53,-1.04 -4.38,-3.19 -5.7,-5.43c-0.46,-1.28 -0.91,-2.57 -1.37,-3.85c-0.72,-2.71 -0.06,-6.2 0.68,-8.15c3.11,-8.13 10.87,-11.71 20.28,-7.25c0,-0.23 0,-0.45 0,-0.68c-0.81,-1.1 -0.55,-2.73 -0.91,-4.3c-0.99,-4.22 -1.74,-18.07 2.96,-18.11c1.28,0.93 3.73,0.88 3.87,2.94c-0.38,0.41 -0.4,0.57 -0.46,1.36c0.08,0 0.15,0 0.23,0c0,-0.08 0,-0.15 0,-0.23c0.98,-1.03 1.25,-3.37 2.96,-3.62c1.37,1.22 3.68,1.46 4.1,3.62c-1.14,1.45 -2.27,3.97 -2.73,5.89c0.15,0 0.3,0 0.46,0c1.43,-1.88 7.31,-7.25 10.03,-6.79c0.8,1.29 1.63,2.57 2.05,4.3c-1.44,0.51 -2.1,1.9 -3.19,2.72c-4,3 -7.23,7.37 -9.8,11.77c0.23,0 0.46,0 0.68,0c1.57,-1.22 7.97,-1.81 10.71,-1.13c7.22,1.79 9.25,4.27 10.94,11.55c0.23,1.01 0.54,3.39 0.23,4.75c-2.18,9.44 -6.79,14.21 -16.41,16.3c-2.57,0.56 -5.13,-0.34 -7.29,-0.45z" />
</svg>