<svg xmlns="http://www.w3.org/2000/svg" viewBox="0 0 33 33" width="33" height="33">
	<defs>
		<filter id="flt1"> <feColorMatrix in="SourceGraphic" type="matrix" values="0 0 0 0 0.922   0 0 0 0 0.922   0 0 0 0 0.922   0 0 0 1 0" /> </filter>
	</defs>
	<style>
		tspan { white-space:pre }
		.shp0 { filter: url(#flt1);fill: #ebebeb } 
	</style>
	<path id="twitter" class="shp0" d="M16,0c8.84,0 16,7.16 16,16c0,8.84 -7.16,16 -16,16c-8.84,0 -16,-7.16 -16,-16c0,-8.84 7.16,-16 16,-16zM25.9,10.21c-0.66,0.32 -1.37,0.54 -2.12,0.64c0.76,-0.5 1.35,-1.29 1.62,-2.23c-0.71,0.46 -1.5,0.8 -2.35,0.98c-0.67,-0.79 -1.63,-1.28 -2.7,-1.28c-2.04,0 -3.69,1.81 -3.69,4.04c0,0.32 0.03,0.63 0.1,0.92c-3.07,-0.17 -5.79,-1.78 -7.61,-4.22c-0.32,0.6 -0.5,1.29 -0.5,2.03c0,1.4 0.65,2.64 1.64,3.36c-0.61,-0.02 -1.17,-0.2 -1.67,-0.51c0,0.02 0,0.03 0,0.05c0,1.96 1.27,3.59 2.96,3.96c-0.31,0.09 -0.64,0.14 -0.97,0.14c-0.24,0 -0.47,-0.03 -0.69,-0.07c0.47,1.61 1.83,2.77 3.45,2.81c-1.26,1.08 -2.86,1.73 -4.59,1.73c-0.3,0 -0.59,-0.02 -0.88,-0.06c1.63,1.15 3.58,1.81 5.66,1.81c6.79,0 10.51,-6.16 10.51,-11.49c0,-0.17 0,-0.35 -0.01,-0.52c0.72,-0.57 1.35,-1.28 1.84,-2.09z" />
</svg>